<?xml version="1.0" standalone="no"?>
<!DOCTYPE svg PUBLIC "-//W3C//DTD SVG 20010904//EN"
 "http://www.w3.org/TR/2001/REC-SVG-20010904/DTD/svg10.dtd">
<svg version="1.0" xmlns="http://www.w3.org/2000/svg"
 width="626.000000pt" height="102.000000pt" viewBox="0 0 626.000000 102.000000"
 preserveAspectRatio="xMidYMid meet">

<g transform="translate(0.000000,102.000000) scale(0.100000,-0.100000)"
fill="#000000" stroke="none">
<path d="M508 885 c-56 -21 -113 -63 -226 -168 -107 -100 -173 -137 -248 -137
-33 0 -35 -2 -32 -27 3 -27 5 -28 53 -25 86 6 159 48 282 163 122 114 184 152
249 152 106 0 173 -125 108 -202 -45 -53 -126 -51 -140 4 -9 34 11 55 53 55
40 0 56 26 28 46 -55 40 -135 -11 -135 -86 0 -34 6 -48 34 -76 30 -30 41 -34
84 -34 54 0 100 24 136 73 15 21 21 43 21 87 0 49 -5 66 -30 101 -55 78 -148
107 -237 74z"/>
<path d="M5622 874 c-119 -60 -149 -197 -62 -284 73 -73 167 -75 229 -5 24 27
31 45 31 76 0 80 -92 129 -151 80 -22 -18 -23 -21 -8 -36 13 -13 20 -14 43 -4
24 11 29 10 48 -8 19 -19 20 -25 8 -53 -22 -54 -79 -66 -138 -30 -87 53 -69
175 32 221 87 40 149 15 316 -126 122 -104 166 -129 243 -140 l47 -7 0 31 c0
29 -2 31 -35 31 -65 0 -121 36 -277 175 -116 104 -226 130 -326 79z"/>
<path d="M880 570 l0 -30 2260 0 2260 0 0 30 0 30 -2260 0 -2260 0 0 -30z"/>
</g>
</svg>
